<svg width="80" height="80" viewBox="0 0 80 80" xmlns="http://www.w3.org/2000/svg">
  <defs>
    <filter id="glow-trigger" x="-20%" y="-20%" width="140%" height="140%">
      <feGaussianBlur stdDeviation="2" result="blur"/>
      <feComposite in="SourceGraphic" in2="blur" operator="over"/>
    </filter>
    <linearGradient id="grad-trigger" x1="0%" y1="0%" x2="100%" y2="100%">
      <stop offset="0%" style="stop-color:#fff;stop-opacity:1" />
      <stop offset="100%" style="stop-color:#e0e0e0;stop-opacity:1" />
    </linearGradient>
  </defs>
  <g filter="url(#glow-trigger)">
    <!-- Vintage Ticket Shape -->
    <path d="M10,25 Q10,15 20,15 L60,15 Q70,15 70,25 L70,35 Q65,40 70,45 L70,55 Q70,65 60,65 L20,65 Q10,65 10,55 L10,45 Q15,40 10,35 Z" fill="#D40000" stroke="#fff" stroke-width="2"/>
    <path d="M15,25 L65,25 M15,55 L65,55" stroke="#fff" stroke-width="1" stroke-dasharray="2,2"/>
    <!-- Cocktail Icon inside -->
    <path d="M30,30 L50,30 L40,45 Z M40,45 L40,55 M35,55 L45,55" stroke="#fff" stroke-width="2" fill="none"/>
    <circle cx="40" cy="28" r="2" fill="#fff"/>
  </g>
</svg>
